<?xml version="1.0" standalone="no"?>
<!DOCTYPE svg PUBLIC "-//W3C//DTD SVG 20010904//EN"
 "http://www.w3.org/TR/2001/REC-SVG-20010904/DTD/svg10.dtd">
<svg version="1.0" xmlns="http://www.w3.org/2000/svg"
 width="520.000000pt" height="520.000000pt" viewBox="0 0 520.000000 520.000000"
 preserveAspectRatio="xMidYMid meet">

<g transform="translate(0.000000,520.000000) scale(0.100000,-0.100000)"
fill="#000000" stroke="none">
<path d="M2535 4653 c-556 -260 -906 -421 -1130 -523 -143 -65 -277 -126 -297
-136 l-38 -18 0 -577 0 -578 28 1 c15 1 61 -2 102 -7 41 -4 105 -8 141 -9 l66
-2 7 150 c3 82 6 267 7 410 1 144 4 286 8 316 l6 55 8 -70 c4 -38 7 -175 7
-302 0 -209 2 -233 16 -233 9 0 27 11 40 25 29 31 72 33 108 4 14 -11 26 -16
26 -10 0 6 8 11 18 11 15 0 48 -36 107 -115 13 -18 14 20 15 338 0 196 3 357
7 357 4 0 33 -25 65 -57 56 -56 57 -56 82 -40 34 22 58 21 73 -3 11 -16 9 -23
-9 -40 -12 -11 -26 -20 -32 -20 -5 0 -7 -2 -4 -5 3 -3 22 2 42 10 26 11 35 12
30 4 -5 -9 -2 -10 9 -6 10 3 17 2 17 -3 0 -5 9 -11 20 -15 11 -3 19 -12 17
-18 -1 -7 5 -11 14 -11 9 1 24 -12 33 -28 10 -15 14 -28 9 -27 -21 4 -33 -2
-33 -15 0 -8 -7 -16 -16 -18 -10 -2 -1 -16 32 -48 27 -25 42 -38 36 -29 -10
14 -10 18 3 23 25 9 17 25 -12 23 -20 -1 -29 3 -31 17 -3 12 0 16 8 11 7 -4
15 -3 19 2 4 7 22 6 51 -1 50 -12 110 0 110 21 0 12 13 17 33 14 4 0 7 4 7 10
0 5 31 40 69 77 l69 67 6 283 c4 193 3 282 -4 282 -6 0 -39 -14 -73 -31 -34
-18 -136 -66 -227 -107 -91 -41 -244 -110 -340 -154 -339 -155 -393 -177 -364
-149 11 12 420 207 764 366 135 62 283 131 329 154 l84 41 196 -87 c108 -47
293 -131 411 -186 201 -93 472 -216 601 -273 l56 -25 6 -202 c7 -225 3 -211
88 -257 29 -15 43 -17 75 -9 21 5 46 11 55 13 22 6 89 41 114 61 19 15 20 28
20 322 l0 306 -170 77 c-324 147 -831 379 -1135 519 -167 78 -307 141 -310
140 -3 0 -68 -30 -145 -66z m-71 -759 c11 -28 7 -32 -51 -64 -54 -28 -59 -29
-70 -13 -20 26 -17 30 40 63 59 34 72 36 81 14z m-224 -123 c5 -11 10 -22 10
-24 0 -3 -28 -21 -62 -42 l-62 -37 -19 23 c-21 26 -18 30 50 70 58 34 69 35
83 10z"/>
<path d="M2607 4253 l-69 -34 7 -302 c4 -166 9 -304 11 -306 2 -3 18 8 34 24
17 16 31 25 32 19 0 -5 4 11 7 36 6 44 7 45 44 48 25 2 37 -1 38 -10 0 -7 2
-35 4 -61 3 -52 12 -66 90 -131 44 -36 48 -38 32 -13 -18 28 -18 29 1 23 39
-13 33 14 -14 64 l-47 50 6 289 7 288 -27 13 c-89 41 -83 41 -156 3z m83 -22
c0 -5 3 -23 6 -41 6 -30 5 -31 -20 -28 -15 2 -26 6 -26 11 0 4 0 21 0 37 0 23
4 30 20 30 11 0 20 -4 20 -9z m36 -228 c40 -34 53 -60 38 -76 -4 -3 -21 5 -38
18 l-31 24 3 -60 c4 -58 3 -59 -22 -59 -25 0 -26 2 -26 61 l0 60 -33 -25 c-42
-32 -57 -33 -57 -3 0 23 81 96 108 97 7 0 33 -17 58 -37z"/>
<path d="M2822 3950 l2 -269 43 -43 c26 -25 41 -35 37 -24 -6 15 -4 18 8 14 9
-4 21 -1 27 5 9 9 14 9 19 1 4 -6 16 -11 27 -10 11 0 20 -2 20 -5 0 -15 40
-50 54 -48 31 3 42 -1 36 -12 -12 -18 27 -37 64 -31 22 3 32 2 28 -5 -4 -6 3
-10 17 -10 13 0 39 -8 57 -17 45 -22 109 -37 109 -24 0 5 4 7 9 3 5 -3 16 4
24 15 19 27 69 37 86 16 11 -14 11 -16 -3 -16 -9 0 -16 -4 -16 -10 0 -10 24
-14 65 -11 16 1 15 -2 -7 -14 -15 -8 -25 -21 -22 -28 3 -8 -4 -35 -16 -61 -11
-26 -18 -51 -15 -56 6 -10 -23 -22 -35 -15 -5 3 -11 1 -14 -4 -5 -8 143 -111
317 -220 l67 -43 93 63 c50 34 95 68 99 73 4 6 8 28 8 48 0 34 -4 39 -50 65
-27 15 -52 33 -54 39 -2 6 0 92 5 190 6 99 7 189 4 201 -3 12 -15 25 -28 29
-12 3 -112 48 -222 99 -110 51 -272 125 -360 165 -88 40 -232 106 -319 147
-88 40 -161 73 -163 73 -1 0 -2 -121 -1 -270z m135 -57 c53 -28 65 -50 40 -71
-10 -9 -29 -3 -75 21 -63 33 -71 44 -50 65 17 17 26 15 85 -15z m231 -125 c31
-17 59 -33 61 -34 11 -9 -12 -54 -27 -54 -19 0 -117 54 -127 70 -6 9 20 50 32
50 2 0 29 -14 61 -32z m300 -164 c2 -1 0 -17 -3 -36 -5 -24 -12 -34 -26 -34
-10 0 -19 5 -19 12 0 6 -22 23 -50 38 -61 33 -67 42 -45 66 17 19 19 19 79
-13 33 -18 62 -33 64 -33z m180 -103 c28 -18 52 -36 52 -40 0 -4 -9 -16 -19
-25 -18 -16 -21 -16 -67 8 -27 14 -61 28 -77 32 -38 9 -41 19 -16 48 25 29 48
25 127 -23z"/>
<path d="M2710 3430 c0 -13 5 -18 15 -14 12 5 13 10 4 20 -15 19 -19 18 -19
-6z"/>
<path d="M1457 3093 c-4 -3 -7 -66 -7 -139 l0 -132 78 -51 c42 -28 82 -51 89
-51 6 0 21 14 33 31 13 17 28 28 36 25 8 -3 18 4 24 14 15 27 28 25 36 -5 12
-48 21 -24 28 74 8 113 7 117 -58 180 -33 33 -48 42 -58 34 -7 -6 -37 -17 -67
-24 l-54 -13 -27 32 c-26 32 -40 38 -53 25z"/>
<path d="M3860 3000 c0 -5 5 -10 10 -10 6 0 10 5 10 10 0 6 -4 10 -10 10 -5 0
-10 -4 -10 -10z"/>
<path d="M1410 2784 c0 -11 47 -51 66 -56 11 -3 28 -9 39 -13 24 -9 -39 41
-77 61 -16 8 -28 12 -28 8z"/>
<path d="M3570 2585 l0 -35 101 0 c57 0 98 4 95 9 -17 27 -97 61 -145 61 l-51
0 0 -35z"/>
<path d="M3379 2601 c-71 -4 -122 -11 -131 -19 -11 -9 -17 -44 -23 -131 -5
-92 -10 -121 -22 -125 -13 -6 -117 59 -171 108 -14 12 -26 17 -30 11 -4 -6
-23 -19 -42 -29 -19 -11 -39 -25 -43 -33 -4 -7 -15 -13 -23 -13 -8 0 -22 -5
-32 -10 -9 -6 -48 -21 -85 -33 l-69 -23 79 -83 c75 -80 101 -122 102 -167 1
-13 9 -24 22 -27 12 -3 18 -10 15 -16 -4 -5 -2 -12 4 -16 5 -3 17 -23 27 -43
9 -20 27 -54 40 -74 27 -44 33 -119 12 -144 -11 -13 -15 -60 -17 -190 -3 -149
-2 -176 12 -189 21 -21 20 -32 -1 -44 -16 -8 -18 -30 -21 -185 -3 -145 -6
-176 -18 -176 -12 0 -14 28 -14 167 0 160 -1 166 -18 150 -10 -10 -23 -17 -28
-17 -9 0 -38 40 -32 44 2 1 20 14 41 29 l37 28 0 162 c0 89 -4 167 -8 174 -4
6 -45 17 -92 23 -47 7 -95 18 -107 26 -32 20 -33 19 -33 -27 0 -39 -1 -40 -32
-37 -30 3 -33 6 -36 41 -2 20 -9 37 -15 37 -7 0 -39 -13 -72 -29 -35 -16 -76
-28 -97 -27 l-36 1 -6 -59 c-3 -32 -6 -109 -6 -169 l0 -111 32 -26 c38 -32 34
-66 -7 -56 l-25 6 0 -170 c0 -157 -6 -191 -26 -159 -3 6 -6 86 -5 178 2 157 1
168 -18 185 -25 22 -27 44 -6 52 13 5 15 37 15 199 0 215 4 203 -70 204 -25 0
-41 7 -56 25 -12 13 -24 23 -27 20 -2 -3 -7 2 -10 10 -4 9 -1 18 4 22 6 4 2
15 -11 29 -26 27 -27 33 -40 243 -5 90 -13 169 -17 175 -8 13 -8 11 -22 161
-6 60 -13 111 -15 113 -10 11 -134 21 -170 14 -23 -4 -52 -4 -66 0 -42 12 -50
10 -50 -11 0 -23 -23 -26 -59 -6 -21 11 -30 9 -89 -21 -101 -51 -95 -41 -89
-170 3 -62 4 -113 2 -113 -3 0 -24 10 -49 21 -24 12 -50 19 -57 15 -8 -3 -52
-35 -99 -69 -83 -62 -85 -65 -85 -105 0 -40 2 -43 79 -99 l79 -58 -7 -114 c-3
-63 -3 -144 0 -180 6 -65 7 -67 54 -99 26 -18 56 -42 66 -54 19 -21 19 -21 -6
-8 -14 7 -49 29 -77 48 l-53 35 0 142 c0 184 -4 202 -48 228 -39 23 -140 27
-209 8 -21 -6 -52 -11 -69 -11 l-31 0 -8 -280 c-5 -215 -4 -284 5 -295 7 -8
103 -77 214 -153 496 -341 674 -464 1014 -701 200 -139 370 -255 377 -257 8
-3 124 69 262 163 317 216 921 634 1083 749 69 49 160 112 203 139 48 31 80
59 83 73 4 12 2 220 -2 462 -9 422 -10 440 -29 454 -23 17 -106 51 -147 60
-15 3 -33 13 -42 21 -8 8 -20 15 -27 15 -6 0 -31 10 -55 22 -24 12 -47 19 -50
16 -3 -4 -8 -165 -11 -360 -3 -194 -9 -360 -14 -368 -5 -9 -9 15 -9 63 0 74
-1 77 -23 77 -13 0 -32 -9 -42 -20 -39 -43 -115 -11 -115 49 0 16 7 34 15 41
13 11 12 16 -8 39 -12 15 -58 84 -102 154 -65 104 -82 124 -91 112 -9 -11 -12
31 -16 171 -4 146 -8 188 -19 195 -8 5 -16 8 -19 7 -3 -1 -57 -4 -121 -7z
m-1595 -489 c3 -5 6 -38 7 -74 2 -58 5 -68 25 -79 68 -36 15 -152 -57 -127
-52 18 -66 81 -27 120 17 17 22 37 26 95 4 66 12 87 26 65z m-15 -317 c49 -36
50 -37 35 -61 -18 -26 -18 -26 -86 23 -50 36 -57 50 -36 71 15 15 24 12 87
-33z m211 -151 c52 -37 60 -53 37 -73 -11 -8 -27 -2 -70 30 -60 43 -64 48 -45
67 17 17 23 16 78 -24z m1400 -69 c10 -12 10 -18 0 -31 -12 -13 -15 -13 -28 0
-15 15 -10 46 6 46 5 0 15 -7 22 -15z m-675 -95 c0 -63 -1 -65 -27 -68 -28 -3
-28 -3 -28 61 0 70 4 79 35 75 18 -3 20 -10 20 -68z m-500 13 c30 -21 54 -40
54 -43 0 -3 -6 -13 -13 -23 -13 -17 -17 -16 -70 19 -57 38 -65 51 -44 72 16
16 12 17 73 -25z m1616 23 c-7 -8 -58 -45 -114 -82 -56 -38 -143 -99 -194
-136 -121 -90 -343 -231 -351 -224 -3 4 3 13 14 21 60 47 251 180 324 226 47
30 123 80 169 112 75 52 149 97 160 97 2 0 -2 -6 -8 -14z m-585 -23 c7 -10 14
-21 14 -25 0 -9 -106 -78 -120 -78 -9 0 -35 39 -28 44 13 11 114 76 117 76 2
0 10 -8 17 -17z m-1242 -253 c121 -81 232 -160 246 -175 38 -42 8 -27 -132 66
-302 202 -469 326 -369 275 18 -10 133 -84 255 -166z m718 -6 l3 -46 27 21
c32 26 44 26 53 4 4 -13 -4 -27 -32 -51 -80 -70 -75 -69 -137 -20 -52 41 -68
69 -46 83 6 3 23 -3 38 -15 l27 -22 3 46 c3 43 5 46 32 46 27 0 29 -3 32 -46z
m-12 -249 c0 -58 -2 -65 -20 -65 -18 0 -20 7 -20 65 0 58 2 65 20 65 18 0 20
-7 20 -65z m-10 -196 c0 -5 -7 -9 -15 -9 -15 0 -20 12 -9 23 8 8 24 -1 24 -14z"/>
<path d="M3566 2502 c-2 -4 -4 -47 -4 -95 -1 -85 0 -89 38 -145 88 -132 160
-243 175 -272 10 -20 23 -30 38 -30 27 0 38 -8 60 -42 10 -16 21 -28 26 -28 9
0 22 530 14 561 -3 10 -21 27 -40 39 -30 17 -51 20 -168 20 -74 0 -136 -3
-139 -8z"/>
</g>
</svg>
